<svg xmlns="http://www.w3.org/2000/svg" id="prefix__ic-arrow-back-black" width="44" height="44" viewBox="0 0 44 44">
    <path id="prefix__Left_Accessory_background" d="M0 0H44V44H0z" data-name="Left Accessory background" style="fill:transparent"/>
    <path id="prefix__Chevron" d="M12.6 1.535a1.335 1.335 0 0 0 .973.4A1.38 1.38 0 0 0 14.965.551a1.42 1.42 0 0 0-.434-1.008l-8.2-8.016 8.2-7.992a1.441 1.441 0 0 0 .434-1.008 1.38 1.38 0 0 0-1.395-1.383 1.335 1.335 0 0 0-.973.4L3.48-9.551a1.5 1.5 0 0 0-.492 1.09 1.45 1.45 0 0 0 .492 1.078z" transform="translate(13.012 30)" style="fill:#3b3b3b"/>
</svg>
